<svg class="railroad-diagram" height="182" viewBox="0 0 313.5 182" width="313.5">
<g transform="translate(.5 .5)">
<g>
<path d="M20 21v20m10 -20v20m-10 -10h20" /></g><path d="M40 31h10" /><g class="non-terminal ">
<path d="M50 31h0.0" /><path d="M104.0 31h0.0" /><rect height="22" width="54" x="50" y="20"></rect><text x="77" y="35">lval</text></g><path d="M104.0 31h10" /><g>
<path d="M114.0 31h0.0" /><path d="M191.0 31h0.0" /><path d="M114.0 31h20" /><g class="terminal ">
<path d="M134.0 31h4.25" /><path d="M166.75 31h4.25" /><rect height="22" rx="10" ry="10" width="28.5" x="138.25" y="20"></rect><text x="152.5" y="35">=</text></g><path d="M171.0 31h20" /><path d="M114.0 31a10 10 0 0 1 10 10v10a10 10 0 0 0 10 10" /><g class="terminal ">
<path d="M134.0 61h0.0" /><path d="M171.0 61h0.0" /><rect height="22" rx="10" ry="10" width="37" x="134" y="50"></rect><text x="152.5" y="65">+=</text></g><path d="M171.0 61a10 10 0 0 0 10 -10v-10a10 10 0 0 1 10 -10" /><path d="M114.0 31a10 10 0 0 1 10 10v40a10 10 0 0 0 10 10" /><g class="terminal ">
<path d="M134.0 91h0.0" /><path d="M171.0 91h0.0" /><rect height="22" rx="10" ry="10" width="37" x="134" y="80"></rect><text x="152.5" y="95">-=</text></g><path d="M171.0 91a10 10 0 0 0 10 -10v-40a10 10 0 0 1 10 -10" /><path d="M114.0 31a10 10 0 0 1 10 10v70a10 10 0 0 0 10 10" /><g class="terminal ">
<path d="M134.0 121h0.0" /><path d="M171.0 121h0.0" /><rect height="22" rx="10" ry="10" width="37" x="134" y="110"></rect><text x="152.5" y="125">*=</text></g><path d="M171.0 121a10 10 0 0 0 10 -10v-70a10 10 0 0 1 10 -10" /><path d="M114.0 31a10 10 0 0 1 10 10v100a10 10 0 0 0 10 10" /><g class="terminal ">
<path d="M134.0 151h0.0" /><path d="M171.0 151h0.0" /><rect height="22" rx="10" ry="10" width="37" x="134" y="140"></rect><text x="152.5" y="155">/=</text></g><path d="M171.0 151a10 10 0 0 0 10 -10v-100a10 10 0 0 1 10 -10" /></g><path d="M191.0 31h10" /><g class="non-terminal ">
<path d="M201.0 31h0.0" /><path d="M263.5 31h0.0" /><rect height="22" width="62.5" x="201" y="20"></rect><text x="232.25" y="35">expr1</text></g><path d="M263.5 31h10" /><path d="M 273.5 31 h 20 m -10 -10 v 20 m 10 -20 v 20"></path></g></svg>