<svg class="railroad-diagram" height="62" viewBox="0 0 327.5 62" width="327.5">
<g transform="translate(.5 .5)">
<g>
<path d="M20 21v20m10 -20v20m-10 -10h20" /></g><path d="M40 31h10" /><g>
<path d="M50 31h0.0" /><path d="M277.5 31h0.0" /><g class="terminal ">
<path d="M50.0 31h0.0" /><path d="M121.0 31h0.0" /><rect height="22" rx="10" ry="10" width="71" x="50" y="20"></rect><text x="85.5" y="35">RETURN</text></g><path d="M121.0 31h10" /><path d="M131.0 31h10" /><g class="non-terminal ">
<path d="M141.0 31h0.0" /><path d="M229.0 31h0.0" /><rect height="22" width="88" x="141" y="20"></rect><text x="185" y="35">opt_expr</text></g><path d="M229.0 31h10" /><path d="M239.0 31h10" /><g class="terminal ">
<path d="M249.0 31h0.0" /><path d="M277.5 31h0.0" /><rect height="22" rx="10" ry="10" width="28.5" x="249" y="20"></rect><text x="263.25" y="35">;</text></g></g><path d="M277.5 31h10" /><path d="M 287.5 31 h 20 m -10 -10 v 20 m 10 -20 v 20"></path></g></svg>