<svg class="railroad-diagram" height="62" viewBox="0 0 361.5 62" width="361.5">
<g transform="translate(.5 .5)">
<g>
<path d="M20 21v20m10 -20v20m-10 -10h20" /></g><path d="M40 31h10" /><g>
<path d="M50 31h0.0" /><path d="M311.5 31h0.0" /><g class="terminal ">
<path d="M50.0 31h0.0" /><path d="M112.5 31h0.0" /><rect height="22" rx="10" ry="10" width="62.5" x="50" y="20"></rect><text x="81.25" y="35">PRINT</text></g><path d="M112.5 31h10" /><path d="M122.5 31h10" /><g class="non-terminal ">
<path d="M132.5 31h0.0" /><path d="M263.0 31h0.0" /><rect height="22" width="130.5" x="132.5" y="20"></rect><text x="197.75" y="35">opt_expr_list</text></g><path d="M263.0 31h10" /><path d="M273.0 31h10" /><g class="terminal ">
<path d="M283.0 31h0.0" /><path d="M311.5 31h0.0" /><rect height="22" rx="10" ry="10" width="28.5" x="283" y="20"></rect><text x="297.25" y="35">;</text></g></g><path d="M311.5 31h10" /><path d="M 321.5 31 h 20 m -10 -10 v 20 m 10 -20 v 20"></path></g></svg>