<svg class="railroad-diagram" height="80" viewBox="0 0 498.5 80" width="498.5">
<g transform="translate(.5 .5)">
<g>
<path d="M20 30v20m10 -20v20m-10 -10h20" /></g><path d="M40 40h10" /><g class="terminal ">
<path d="M50 40h0.0" /><path d="M112.5 40h0.0" /><rect height="22" rx="10" ry="10" width="62.5" x="50" y="29"></rect><text x="81.25" y="44">class</text></g><path d="M112.5 40h10" /><path d="M122.5 40h10" /><g class="terminal ">
<path d="M132.5 40h0.0" /><path d="M169.5 40h0.0" /><rect height="22" rx="10" ry="10" width="37" x="132.5" y="29"></rect><text x="151" y="44">ID</text></g><path d="M169.5 40h10" /><path d="M179.5 40h10" /><g class="terminal ">
<path d="M189.5 40h0.0" /><path d="M218.0 40h0.0" /><rect height="22" rx="10" ry="10" width="28.5" x="189.5" y="29"></rect><text x="203.75" y="44">{</text></g><path d="M218.0 40h10" /><g>
<path d="M228.0 40h0.0" /><path d="M410.0 40h0.0" /><path d="M228.0 40a10 10 0 0 0 10 -10v0a10 10 0 0 1 10 -10" /><g>
<path d="M248.0 20h142.0" /></g><path d="M390.0 20a10 10 0 0 1 10 10v0a10 10 0 0 0 10 10" /><path d="M228.0 40h20" /><g>
<path d="M248.0 40h0.0" /><path d="M390.0 40h0.0" /><path d="M248.0 40h10" /><g class="non-terminal ">
<path d="M258.0 40h0.0" /><path d="M380.0 40h0.0" /><rect height="22" width="122" x="258" y="29"></rect><text x="319" y="44">class_member</text></g><path d="M380.0 40h10" /><path d="M258.0 40a10 10 0 0 0 -10 10v0a10 10 0 0 0 10 10" /><g>
<path d="M258.0 60h122.0" /></g><path d="M380.0 60a10 10 0 0 0 10 -10v0a10 10 0 0 0 -10 -10" /></g><path d="M390.0 40h20" /></g><path d="M410.0 40h10" /><g class="terminal ">
<path d="M420.0 40h0.0" /><path d="M448.5 40h0.0" /><rect height="22" rx="10" ry="10" width="28.5" x="420" y="29"></rect><text x="434.25" y="44">}</text></g><path d="M448.5 40h10" /><path d="M 458.5 40 h 20 m -10 -10 v 20 m 10 -20 v 20"></path></g></svg>