<svg class="railroad-diagram" height="62" viewBox="0 0 450.0 62" width="450.0">
<g transform="translate(.5 .5)">
<g>
<path d="M20 21v20m10 -20v20m-10 -10h20" /></g><path d="M40 31h10" /><g class="terminal ">
<path d="M50 31h0.0" /><path d="M95.5 31h0.0" /><rect height="22" rx="10" ry="10" width="45.5" x="50" y="20"></rect><text x="72.75" y="35">new</text></g><path d="M95.5 31h10" /><path d="M105.5 31h10" /><g class="terminal ">
<path d="M115.5 31h0.0" /><path d="M152.5 31h0.0" /><rect height="22" rx="10" ry="10" width="37" x="115.5" y="20"></rect><text x="134" y="35">ID</text></g><path d="M152.5 31h10" /><path d="M162.5 31h10" /><g class="terminal ">
<path d="M172.5 31h0.0" /><path d="M201.0 31h0.0" /><rect height="22" rx="10" ry="10" width="28.5" x="172.5" y="20"></rect><text x="186.75" y="35">(</text></g><path d="M201.0 31h10" /><path d="M211.0 31h10" /><g class="non-terminal ">
<path d="M221.0 31h0.0" /><path d="M351.5 31h0.0" /><rect height="22" width="130.5" x="221" y="20"></rect><text x="286.25" y="35">opt_expr_list</text></g><path d="M351.5 31h10" /><path d="M361.5 31h10" /><g class="terminal ">
<path d="M371.5 31h0.0" /><path d="M400.0 31h0.0" /><rect height="22" rx="10" ry="10" width="28.5" x="371.5" y="20"></rect><text x="385.75" y="35">)</text></g><path d="M400.0 31h10" /><path d="M 410.0 31 h 20 m -10 -10 v 20 m 10 -20 v 20"></path></g></svg>