<svg class="railroad-diagram" height="62" viewBox="0 0 424.5 62" width="424.5">
<g transform="translate(.5 .5)">
<g>
<path d="M20 21v20m10 -20v20m-10 -10h20" /></g><path d="M40 31h10" /><g class="non-terminal ">
<path d="M50 31h0.0" /><path d="M112.5 31h0.0" /><rect height="22" width="62.5" x="50" y="20"></rect><text x="81.25" y="35">expr2</text></g><path d="M112.5 31h10" /><path d="M122.5 31h10" /><g class="terminal ">
<path d="M132.5 31h0.0" /><path d="M161.0 31h0.0" /><rect height="22" rx="10" ry="10" width="28.5" x="132.5" y="20"></rect><text x="146.75" y="35">?</text></g><path d="M161.0 31h10" /><path d="M171.0 31h10" /><g class="non-terminal ">
<path d="M181.0 31h0.0" /><path d="M243.5 31h0.0" /><rect height="22" width="62.5" x="181" y="20"></rect><text x="212.25" y="35">expr1</text></g><path d="M243.5 31h10" /><path d="M253.5 31h10" /><g class="terminal ">
<path d="M263.5 31h0.0" /><path d="M292.0 31h0.0" /><rect height="22" rx="10" ry="10" width="28.5" x="263.5" y="20"></rect><text x="277.75" y="35">:</text></g><path d="M292.0 31h10" /><path d="M302.0 31h10" /><g class="non-terminal ">
<path d="M312.0 31h0.0" /><path d="M374.5 31h0.0" /><rect height="22" width="62.5" x="312" y="20"></rect><text x="343.25" y="35">expr1</text></g><path d="M374.5 31h10" /><path d="M 384.5 31 h 20 m -10 -10 v 20 m 10 -20 v 20"></path></g></svg>