<svg class="railroad-diagram" height="152" viewBox="0 0 269.5 152" width="269.5">
<g transform="translate(.5 .5)">
<g>
<path d="M20 21v20m10 -20v20m-10 -10h20" /></g><g>
<path d="M40 31h0.0" /><path d="M229.5 31h0.0" /><path d="M40.0 31h20" /><g>
<path d="M60.0 31h0.0" /><path d="M209.5 31h0.0" /><g>
<path d="M60.0 31h0.0" /><path d="M137.0 31h0.0" /><path d="M60.0 31h20" /><g class="terminal ">
<path d="M80.0 31h0.0" /><path d="M117.0 31h0.0" /><rect height="22" rx="10" ry="10" width="37" x="80" y="20"></rect><text x="98.5" y="35">++</text></g><path d="M117.0 31h20" /><path d="M60.0 31a10 10 0 0 1 10 10v10a10 10 0 0 0 10 10" /><g class="terminal ">
<path d="M80.0 61h0.0" /><path d="M117.0 61h0.0" /><rect height="22" rx="10" ry="10" width="37" x="80" y="50"></rect><text x="98.5" y="65">--</text></g><path d="M117.0 61a10 10 0 0 0 10 -10v-10a10 10 0 0 1 10 -10" /></g><path d="M137.0 31h10" /><g class="non-terminal ">
<path d="M147.0 31h0.0" /><path d="M209.5 31h0.0" /><rect height="22" width="62.5" x="147" y="20"></rect><text x="178.25" y="35">expr8</text></g></g><path d="M209.5 31h20" /><path d="M40.0 31a10 10 0 0 1 10 10v40a10 10 0 0 0 10 10" /><g>
<path d="M60.0 91h0.0" /><path d="M209.5 91h0.0" /><g class="non-terminal ">
<path d="M60.0 91h0.0" /><path d="M122.5 91h0.0" /><rect height="22" width="62.5" x="60" y="80"></rect><text x="91.25" y="95">expr9</text></g><path d="M122.5 91h10" /><g>
<path d="M132.5 91h0.0" /><path d="M209.5 91h0.0" /><path d="M132.5 91h20" /><g class="terminal ">
<path d="M152.5 91h0.0" /><path d="M189.5 91h0.0" /><rect height="22" rx="10" ry="10" width="37" x="152.5" y="80"></rect><text x="171" y="95">++</text></g><path d="M189.5 91h20" /><path d="M132.5 91a10 10 0 0 1 10 10v10a10 10 0 0 0 10 10" /><g class="terminal ">
<path d="M152.5 121h0.0" /><path d="M189.5 121h0.0" /><rect height="22" rx="10" ry="10" width="37" x="152.5" y="110"></rect><text x="171" y="125">--</text></g><path d="M189.5 121a10 10 0 0 0 10 -10v-10a10 10 0 0 1 10 -10" /></g></g><path d="M209.5 91a10 10 0 0 0 10 -10v-40a10 10 0 0 1 10 -10" /></g><path d="M 229.5 31 h 20 m -10 -10 v 20 m 10 -20 v 20"></path></g></svg>