<svg class="railroad-diagram" height="92" viewBox="0 0 521.0 92" width="521.0">
<g transform="translate(.5 .5)">
<g>
<path d="M20 21v20m10 -20v20m-10 -10h20" /></g><path d="M40 31h10" /><g class="terminal ">
<path d="M50 31h0.0" /><path d="M112.5 31h0.0" /><rect height="22" rx="10" ry="10" width="62.5" x="50" y="20"></rect><text x="81.25" y="35">while</text></g><path d="M112.5 31h10" /><path d="M122.5 31h10" /><g class="terminal ">
<path d="M132.5 31h0.0" /><path d="M161.0 31h0.0" /><rect height="22" rx="10" ry="10" width="28.5" x="132.5" y="20"></rect><text x="146.75" y="35">(</text></g><path d="M161.0 31h10" /><path d="M171.0 31h10" /><g class="non-terminal ">
<path d="M181.0 31h0.0" /><path d="M269.0 31h0.0" /><rect height="22" width="88" x="181" y="20"></rect><text x="225" y="35">opt_expr</text></g><path d="M269.0 31h10" /><path d="M279.0 31h10" /><g class="terminal ">
<path d="M289.0 31h0.0" /><path d="M317.5 31h0.0" /><rect height="22" rx="10" ry="10" width="28.5" x="289" y="20"></rect><text x="303.25" y="35">)</text></g><path d="M317.5 31h10" /><g>
<path d="M327.5 31h0.0" /><path d="M481.0 31h0.0" /><path d="M327.5 31h20" /><g class="non-terminal ">
<path d="M347.5 31h0.0" /><path d="M461.0 31h0.0" /><rect height="22" width="113.5" x="347.5" y="20"></rect><text x="404.25" y="35">closed_stmt</text></g><path d="M461.0 31h20" /><path d="M327.5 31a10 10 0 0 1 10 10v10a10 10 0 0 0 10 10" /><g class="non-terminal ">
<path d="M347.5 61h8.5" /><path d="M452.5 61h8.5" /><rect height="22" width="96.5" x="356" y="50"></rect><text x="404.25" y="65">open_stmt</text></g><path d="M461.0 61a10 10 0 0 0 10 -10v-10a10 10 0 0 1 10 -10" /></g><path d="M 481.0 31 h 20 m -10 -10 v 20 m 10 -20 v 20"></path></g></svg>